<svg width="904" height="735" viewBox="0 0 904 735" fill="none" xmlns="http://www.w3.org/2000/svg">
<path d="M12.9936 228.486L11.4645 230.672L12.2921 233.011L9.53947 232.67L8.59501 234.649L7.19982 232.253L4.80788 231.384L6.54379 229.782L5.32021 227.254L7.88424 227.992L9.41319 225.806L10.4479 228.729L12.9936 228.486Z" fill="#EADAC6"/>
<path d="M29.1932 331.372L27.0215 334.476L28.197 337.798L24.2876 337.313L22.9462 340.123L20.9647 336.721L17.5677 335.486L20.033 333.212L18.2953 329.622L21.9368 330.67L24.1082 327.565L25.5777 331.717L29.1932 331.372Z" fill="#EADAC6"/>
<path d="M194.238 476.509L194.305 472.721L191.474 470.623L194.987 468.841L194.529 465.761L198.074 467.476L201.581 466.601L200.807 469.865L204.254 471.871L200.649 473.037L200.583 476.825L197.044 474.203L194.238 476.509Z" fill="#EADAC6"/>
<path d="M84.254 622.691L84.3756 619.761L82.2238 618.085L84.9757 616.771L84.6783 614.379L87.3895 615.772L90.1196 615.16L89.4603 617.671L92.0906 619.288L89.279 620.123L89.1577 623.054L86.4679 620.959L84.254 622.691Z" fill="#EADAC6"/>
<path d="M323.209 698.231L325.281 700.307L327.972 699.861L327.073 702.775L329.033 704.178L326.171 705.227L324.771 707.649L323.371 705.462L320.4 706.3L321.691 703.667L319.619 701.591L322.982 701.034L323.209 698.231Z" fill="#EADAC6"/>
<path d="M491.153 724.502L493.085 726.437L495.593 726.021L494.755 728.737L496.583 730.045L493.915 731.023L492.609 733.281L491.304 731.242L488.534 732.024L489.738 729.569L487.806 727.634L490.942 727.114L491.153 724.502Z" fill="#EADAC6"/>
<path d="M387.32 633.967L388.565 635.214L390.181 634.946L389.641 636.696L390.818 637.539L389.099 638.169L388.258 639.624L387.417 638.31L385.632 638.814L386.408 637.232L385.164 635.986L387.184 635.651L387.32 633.967Z" fill="#EADAC6"/>
<path d="M271.029 596.591L271.79 597.354L272.778 597.19L272.448 598.26L273.168 598.775L272.117 599.16L271.603 600.049L271.089 599.246L269.998 599.554L270.472 598.587L269.711 597.825L270.946 597.62L271.029 596.591Z" fill="#EADAC6"/>
<path d="M653.407 610.993L654.684 612.272L656.343 611.997L655.789 613.794L656.997 614.658L655.233 615.305L654.37 616.798L653.507 615.45L651.675 615.967L652.472 614.343L651.194 613.064L653.267 612.72L653.407 610.993Z" fill="#EADAC6"/>
<path d="M710.959 678.123L711.398 679.877L712.962 680.493L711.564 681.75L712.156 683.112L710.311 682.761L708.803 683.598L708.755 681.999L706.918 681.501L708.435 680.517L707.996 678.763L709.952 679.534L710.959 678.123Z" fill="#EADAC6"/>
<path d="M776.074 568.591L777.394 571.167L780.057 571.561L778.333 574.027L779.751 575.937L776.745 576.059L774.698 577.912L774.043 575.434L770.998 575.325L773.007 573.24L771.686 570.664L775.015 571.156L776.074 568.591Z" fill="#EADAC6"/>
<path d="M748.01 464.78L749.751 468.177L753.263 468.695L750.988 471.948L752.859 474.467L748.895 474.628L746.195 477.071L745.332 473.804L741.316 473.659L743.965 470.91L742.223 467.514L746.613 468.162L748.01 464.78Z" fill="#EADAC6"/>
<path d="M756.439 328.335L757.187 329.793L758.694 330.016L757.718 331.413L758.521 332.494L756.819 332.563L755.66 333.612L755.289 332.209L753.565 332.147L754.702 330.967L753.955 329.509L755.839 329.787L756.439 328.335Z" fill="#EADAC6"/>
<path d="M681.894 202.766L682.75 205.541L685.313 206.394L683.18 208.53L684.249 210.665L681.257 210.262L678.911 211.737L678.696 209.174L675.705 208.536L678.054 206.826L677.197 204.05L680.401 205.116L681.894 202.766Z" fill="#EADAC6"/>
<path d="M573.37 65.9672L572.797 67.8123L573.822 69.1675L571.924 69.6306L571.698 71.1905L570.285 69.9397L568.519 69.9596L569.347 68.4533L568.021 67.0712L569.874 66.9202L570.446 65.075L571.727 66.7691L573.37 65.9672Z" fill="#EADAC6"/>
<path d="M367.307 152.454L368.002 155.688L370.669 156.85L368.225 159.135L369.197 161.652L366.038 160.972L363.419 162.484L363.391 159.541L360.252 158.592L362.891 156.811L362.195 153.577L365.529 155.03L367.307 152.454Z" fill="#EADAC6"/>
<path d="M183.159 105.196L183.46 106.595L184.613 107.097L183.556 108.085L183.977 109.173L182.611 108.879L181.478 109.533L181.466 108.261L180.109 107.85L181.25 107.08L180.949 105.682L182.391 106.31L183.159 105.196Z" fill="#EADAC6"/>
<path d="M305.302 81.6497L305.027 83.6748L306.333 84.9099L304.433 85.7246L304.47 87.3917L302.777 86.3334L300.938 86.6625L301.539 84.9461L299.914 83.7356L301.821 83.2544L302.096 81.2292L303.729 82.7732L305.302 81.6497Z" fill="#EADAC6"/>
<path d="M558.126 6.35885L556.777 7.74174L557.073 9.41481L555.172 8.96359L554.262 10.2501L553.572 8.49319L551.99 7.70764L553.413 6.74299L552.86 4.90885L554.58 5.61751L555.929 4.23452L556.299 6.32594L558.126 6.35885Z" fill="#EADAC6"/>
<path d="M657.166 4.63595L655.376 5.36273L654.977 7.01437L653.416 5.83933L652.066 6.65338L652.138 4.76723L651.003 3.4139L652.693 3.09997L652.922 1.19811L654.213 2.53615L656.003 1.80923L655.504 3.87387L657.166 4.63595Z" fill="#EADAC6"/>
<path d="M682.766 101.494L681.023 101.872L680.399 103.312L679.164 101.996L677.807 102.523L678.17 100.818L677.352 99.4071L678.939 99.3886L679.448 97.694L680.412 99.1159L682.155 98.7373L681.375 100.537L682.766 101.494Z" fill="#EADAC6"/>
<path d="M805.666 96.7714L803.798 97.6864L803.493 99.4908L801.728 98.3453L800.338 99.3211L800.274 97.2892L798.954 95.9202L800.746 95.4563L800.849 93.3958L802.337 94.7366L804.205 93.8215L803.825 96.0771L805.666 96.7714Z" fill="#EADAC6"/>
<path d="M810.701 227.549L812.682 225.377L812.146 222.847L815.061 223.437L816.381 221.433L817.52 224.07L819.966 225.184L817.851 226.724L818.785 229.486L816.133 228.496L814.152 230.668L813.482 227.506L810.701 227.549Z" fill="#EADAC6"/>
<path d="M892.701 345.549L894.682 343.377L894.146 340.847L897.061 341.437L898.381 339.433L899.52 342.07L901.966 343.184L899.851 344.724L900.785 347.486L898.133 346.496L896.152 348.668L895.482 345.506L892.701 345.549Z" fill="#EADAC6"/>
<path d="M832.673 418.985L833.456 418.126L833.244 417.126L834.397 417.359L834.918 416.567L835.369 417.61L836.336 418.05L835.5 418.659L835.869 419.751L834.821 419.36L834.037 420.219L833.772 418.968L832.673 418.985Z" fill="#EADAC6"/>
<path d="M153 206.5C5.99996 299 136 467.126 238 535.5C356 614.599 581 645.5 602.5 470" stroke="url(#paint0_linear_64_49)"/>
<path d="M108 242.5C-32.0001 331.5 89.8852 502.5 205.5 580C347.5 675.187 601 705 579 506.5" stroke="url(#paint1_linear_64_49)"/>
<path d="M82.4999 226C-57.5001 315 -10.5 486 172.236 610.5C349.664 731.384 612.5 719.5 590.5 521" stroke="url(#paint2_linear_64_49)"/>
<path d="M235.168 292.752L234.93 291.271L234.93 291.271L235.168 292.752ZM539.362 521.177L538.156 520.285L538.156 520.285L539.362 521.177ZM340.495 504.6L346.721 520.763L357.605 507.29L340.495 504.6ZM278.238 466.942C215.508 414.529 195.025 372.744 195.013 343.547C195.001 314.499 215.263 297.467 235.406 294.233L234.93 291.271C213.519 294.708 192 312.845 192.013 343.549C192.026 374.104 213.374 416.655 276.314 469.244L278.238 466.942ZM235.405 294.233C313.921 281.634 402.872 320.446 465.636 371.577C496.998 397.126 521.695 425.653 535.231 452.189C548.796 478.78 550.973 502.954 538.156 520.285L540.568 522.069C554.403 503.361 551.658 477.789 537.904 450.825C524.121 423.807 499.103 394.972 467.531 369.251C404.426 317.843 314.629 278.482 234.93 291.271L235.405 294.233ZM538.156 520.285C520.312 544.416 484.52 549.609 447.361 544.943C410.316 540.292 372.642 525.919 351.839 511.843L350.158 514.328C371.409 528.707 409.548 543.219 446.987 547.92C484.312 552.606 521.675 547.618 540.568 522.069L538.156 520.285Z" fill="url(#paint3_angular_64_49)"/>
<ellipse cx="559" cy="313" rx="29" ry="27" fill="url(#paint4_radial_64_49)"/>
<ellipse cx="394.5" cy="214.5" rx="30.5" ry="28.5" fill="url(#paint5_radial_64_49)"/>
<ellipse cx="431.5" cy="328.5" rx="148.5" ry="138.5" fill="url(#paint6_radial_64_49)"/>
<ellipse cx="305" cy="340" rx="30" ry="28" fill="url(#paint7_radial_64_49)"/>
<ellipse cx="380" cy="401" rx="30" ry="28" fill="url(#paint8_radial_64_49)"/>
<ellipse cx="471" cy="440" rx="29" ry="27" fill="url(#paint9_radial_64_49)"/>
<ellipse cx="561" cy="465" rx="29" ry="27" fill="url(#paint10_radial_64_49)"/>
<ellipse cx="640" cy="457" rx="29" ry="27" fill="url(#paint11_radial_64_49)"/>
<ellipse cx="619" cy="382" rx="29" ry="27" fill="url(#paint12_radial_64_49)"/>
<ellipse cx="244" cy="272" rx="29" ry="27" fill="url(#paint13_radial_64_49)"/>
<ellipse cx="221.5" cy="201.5" rx="30.5" ry="28.5" fill="url(#paint14_radial_64_49)"/>
<ellipse cx="304.5" cy="189.5" rx="30.5" ry="28.5" fill="url(#paint15_radial_64_49)"/>
<path d="M629.507 366.504L629.757 367.984L629.757 367.983L629.507 366.504ZM323.507 140.504L324.72 141.387L324.72 141.387L323.507 140.504ZM522.5 155.5L516.145 139.387L505.369 152.947L522.5 155.5ZM585.054 192.663C648.198 244.576 669.013 286.196 669.257 315.392C669.5 344.439 649.374 361.632 629.258 365.025L629.757 367.983C651.14 364.377 672.514 346.069 672.257 315.367C672.001 284.812 650.316 242.433 586.96 190.346L585.054 192.663ZM629.258 365.025C550.845 378.249 461.589 340.145 398.42 289.514C366.855 264.214 341.933 235.885 328.186 209.458C314.411 182.975 312.042 158.819 324.72 141.387L322.294 139.622C308.608 158.44 311.557 183.989 325.525 210.842C339.521 237.75 364.768 266.386 396.544 291.855C460.055 342.76 550.162 381.406 629.757 367.984L629.258 365.025ZM324.72 141.387C342.372 117.115 378.122 111.638 415.317 116.008C452.397 120.364 490.184 134.438 511.098 148.348L512.76 145.85C491.395 131.64 453.142 117.431 415.667 113.028C378.305 108.638 340.984 113.924 322.294 139.622L324.72 141.387Z" fill="url(#paint16_angular_64_49)"/>
<defs>
<linearGradient id="paint0_linear_64_49" x1="246" y1="541" x2="400.5" y2="231.5" gradientUnits="userSpaceOnUse">
<stop stop-color="#444444"/>
<stop offset="0.680954" stop-color="#464646" stop-opacity="0"/>
</linearGradient>
<linearGradient id="paint1_linear_64_49" x1="210.023" y1="583.5" x2="342" y2="340.5" gradientUnits="userSpaceOnUse">
<stop stop-color="#444444"/>
<stop offset="0.887228" stop-color="#464646" stop-opacity="0"/>
</linearGradient>
<linearGradient id="paint2_linear_64_49" x1="176.759" y1="614" x2="308.735" y2="371" gradientUnits="userSpaceOnUse">
<stop stop-color="#444444"/>
<stop offset="1" stop-color="#464646" stop-opacity="0"/>
</linearGradient>
<radialGradient id="paint3_angular_64_49" cx="0" cy="0" r="1" gradientUnits="userSpaceOnUse" gradientTransform="translate(370.854 417.382) rotate(122.142) scale(94.5513 199.282)">
<stop stop-color="#BD6262"/>
<stop offset="0.0729167" stop-color="#9B26A5"/>
<stop offset="0.3125" stop-color="#6A0997"/>
<stop offset="0.645833" stop-color="#FC4C8B"/>
<stop offset="1" stop-color="#CE1D60"/>
</radialGradient>
<radialGradient id="paint4_radial_64_49" cx="0" cy="0" r="1" gradientUnits="userSpaceOnUse" gradientTransform="translate(548.367 320.714) rotate(64.461) scale(57.1758 43.8473)">
<stop stop-color="#0C3296"/>
<stop offset="1" stop-color="#D729A6"/>
</radialGradient>
<radialGradient id="paint5_radial_64_49" cx="0" cy="0" r="1" gradientUnits="userSpaceOnUse" gradientTransform="translate(383.317 222.643) rotate(64.5419) scale(60.3116 46.1463)">
<stop stop-color="#0C3296"/>
<stop offset="1" stop-color="#D729A6"/>
</radialGradient>
<radialGradient id="paint6_radial_64_49" cx="0" cy="0" r="1" gradientUnits="userSpaceOnUse" gradientTransform="translate(579 317.5) rotate(82.518) scale(268.788 287.915)">
<stop stop-color="#DC448D"/>
<stop offset="0.354167" stop-color="#8C2F9B"/>
<stop offset="0.833333" stop-color="#3913A6"/>
</radialGradient>
<radialGradient id="paint7_radial_64_49" cx="0" cy="0" r="1" gradientUnits="userSpaceOnUse" gradientTransform="translate(294 348) rotate(64.5159) scale(59.2663 45.38)">
<stop stop-color="#0C3296"/>
<stop offset="1" stop-color="#D729A6"/>
</radialGradient>
<radialGradient id="paint8_radial_64_49" cx="0" cy="0" r="1" gradientUnits="userSpaceOnUse" gradientTransform="translate(369 409) rotate(64.5159) scale(59.2663 45.38)">
<stop stop-color="#0C3296"/>
<stop offset="1" stop-color="#D729A6"/>
</radialGradient>
<radialGradient id="paint9_radial_64_49" cx="0" cy="0" r="1" gradientUnits="userSpaceOnUse" gradientTransform="translate(460.367 447.714) rotate(64.461) scale(57.1758 43.8473)">
<stop stop-color="#0C3296"/>
<stop offset="1" stop-color="#D729A6"/>
</radialGradient>
<radialGradient id="paint10_radial_64_49" cx="0" cy="0" r="1" gradientUnits="userSpaceOnUse" gradientTransform="translate(550.367 472.714) rotate(64.461) scale(57.1758 43.8473)">
<stop stop-color="#0C3296"/>
<stop offset="1" stop-color="#D729A6"/>
</radialGradient>
<radialGradient id="paint11_radial_64_49" cx="0" cy="0" r="1" gradientUnits="userSpaceOnUse" gradientTransform="translate(629.367 464.714) rotate(64.461) scale(57.1758 43.8473)">
<stop stop-color="#0C3296"/>
<stop offset="1" stop-color="#D729A6"/>
</radialGradient>
<radialGradient id="paint12_radial_64_49" cx="0" cy="0" r="1" gradientUnits="userSpaceOnUse" gradientTransform="translate(608.367 389.714) rotate(64.461) scale(57.1758 43.8473)">
<stop stop-color="#0C3296"/>
<stop offset="1" stop-color="#D729A6"/>
</radialGradient>
<radialGradient id="paint13_radial_64_49" cx="0" cy="0" r="1" gradientUnits="userSpaceOnUse" gradientTransform="translate(233.367 279.714) rotate(64.461) scale(57.1758 43.8473)">
<stop stop-color="#0C3296"/>
<stop offset="1" stop-color="#D729A6"/>
</radialGradient>
<radialGradient id="paint14_radial_64_49" cx="0" cy="0" r="1" gradientUnits="userSpaceOnUse" gradientTransform="translate(210.317 209.643) rotate(64.5419) scale(60.3116 46.1463)">
<stop stop-color="#0C3296"/>
<stop offset="1" stop-color="#D729A6"/>
</radialGradient>
<radialGradient id="paint15_radial_64_49" cx="0" cy="0" r="1" gradientUnits="userSpaceOnUse" gradientTransform="translate(293.317 197.643) rotate(64.5419) scale(60.3116 46.1463)">
<stop stop-color="#0C3296"/>
<stop offset="1" stop-color="#D729A6"/>
</radialGradient>
<radialGradient id="paint16_angular_64_49" cx="0" cy="0" r="1" gradientUnits="userSpaceOnUse" gradientTransform="translate(492.834 242.957) rotate(-58.3131) scale(94.5513 199.282)">
<stop stop-color="#BD6262"/>
<stop offset="0.0729167" stop-color="#9B26A5"/>
<stop offset="0.3125" stop-color="#6A0997"/>
<stop offset="0.645833" stop-color="#FC4C8B"/>
<stop offset="1" stop-color="#CE1D60"/>
</radialGradient>
</defs>
</svg>
