<svg width="48" height="38" viewBox="0 0 48 38" fill="none" xmlns="http://www.w3.org/2000/svg">
<path d="M12.5 7.49996L12.5 6.49996L12.5 6.49996L12.5 7.49996ZM0.292868 6.79294C-0.0976531 7.18347 -0.0976486 7.81664 0.292878 8.20716L6.65688 14.5711C7.04741 14.9616 7.68058 14.9616 8.0711 14.5711C8.46162 14.1805 8.46161 13.5474 8.07109 13.1569L2.41419 7.50004L8.07101 1.84314C8.46153 1.45261 8.46153 0.81945 8.071 0.428928C7.68047 0.0384065 7.04731 0.0384109 6.65679 0.428938L0.292868 6.79294ZM46.5 37.4999C47.0523 37.4999 47.5 37.0522 47.5 36.4999C47.5 35.9476 47.0523 35.4999 46.5 35.4999L46.5 37.4999ZM17.5 36.4999L17.5 37.4999L17.5 37.4999L17.5 36.4999ZM15 9.99997L14 9.99996L14 9.99997L15 9.99997ZM15 34.4999L16 34.4999L16 34.4999L15 34.4999ZM12.5 6.49996L0.999973 6.50005L0.999987 8.50005L12.5 8.49996L12.5 6.49996ZM46.5 35.4999L17.5 35.4999L17.5 37.4999L46.5 37.4999L46.5 35.4999ZM16 9.99997C16 9.02272 15.6699 8.13064 15.0196 7.48036C14.3693 6.83008 13.4773 6.49996 12.5 6.49996L12.5 8.49996C13.0228 8.49996 13.3807 8.66985 13.6054 8.89457C13.8301 9.11929 14 9.47721 14 9.99996L16 9.99997ZM17.5 35.4999C16.4021 35.4999 16 34.8085 16 34.4999L14 34.4999C14 36.1913 15.5979 37.4999 17.5 37.4999L17.5 35.4999ZM16 34.4999L16 9.99997L14 9.99997L14 34.4999L16 34.4999Z" fill="black"/>
</svg>
