<svg width="82" height="38" viewBox="0 0 82 38" fill="none" xmlns="http://www.w3.org/2000/svg">
<path d="M23.5 7.50007L23.5 8.50007L23.5 8.50007L23.5 7.50007ZM0.292863 6.79296C-0.0976617 7.18349 -0.0976617 7.81665 0.292863 8.20718L6.65682 14.5711C7.04735 14.9617 7.68051 14.9617 8.07104 14.5711C8.46156 14.1806 8.46156 13.5474 8.07104 13.1569L2.41418 7.50007L8.07104 1.84321C8.46156 1.45269 8.46156 0.819524 8.07104 0.429C7.68051 0.0384759 7.04735 0.038476 6.65682 0.429L0.292863 6.79296ZM81 37.5001C81.5523 37.5001 82 37.0524 82 36.5001C82 35.9478 81.5523 35.5001 81 35.5001L81 37.5001ZM28.5 36.5L28.5 37.5L28.5 37.5L28.5 36.5ZM26 10.0001L25 10.0001L25 10.0001L26 10.0001ZM26 34.5L27 34.5L27 34.5L26 34.5ZM23.5 6.50007L0.999969 6.50007L0.999969 8.50007L23.5 8.50007L23.5 6.50007ZM81 35.5001L28.5 35.5L28.5 37.5L81 37.5001L81 35.5001ZM27 10.0001C27 9.02282 26.6699 8.13074 26.0196 7.48046C25.3693 6.83018 24.4772 6.50007 23.5 6.50007L23.5 8.50007C24.0227 8.50007 24.3806 8.66995 24.6054 8.89467C24.8301 9.11939 25 9.47731 25 10.0001L27 10.0001ZM28.5 35.5C27.4021 35.5 27 34.8086 27 34.5L25 34.5C25 36.1914 26.5979 37.5 28.5 37.5L28.5 35.5ZM27 34.5L27 10.0001L25 10.0001L25 34.5L27 34.5Z" fill="black"/>
</svg>
