<svg width="1038" height="1098" viewBox="0 0 1038 1098" fill="none" xmlns="http://www.w3.org/2000/svg">
<path d="M734.621 394.347C805.316 500.339 842.521 614.142 845.546 712.437C848.571 810.741 817.414 893.452 751.492 937.421C685.569 981.39 597.236 978.377 507.639 937.814C418.051 897.256 327.278 819.182 256.583 713.189C185.888 607.197 148.683 493.394 145.658 395.099C142.633 296.795 173.79 214.084 239.713 170.115C305.635 126.146 393.969 129.159 483.565 169.721C573.153 210.28 663.926 288.354 734.621 394.347Z" stroke="url(#paint0_linear_55_5)" stroke-opacity="0.5"/>
<path d="M812.881 336.128C874.693 428.802 906.241 528.958 907.3 615.955C908.36 702.958 878.932 776.731 818.88 816.784C758.829 856.838 679.411 855.662 599.494 821.256C519.581 786.853 439.234 719.245 377.422 626.571C315.61 533.897 284.063 433.742 283.003 346.745C281.944 259.742 311.371 185.968 371.423 145.915C431.475 105.862 510.892 107.038 590.81 141.443C670.723 175.847 751.069 243.454 812.881 336.128Z" stroke="url(#paint1_linear_55_5)" stroke-opacity="0.5"/>
<path d="M777.148 371.319C843.692 471.087 877.855 578.778 879.318 672.223C880.781 765.674 849.546 844.805 785.381 887.602C721.216 930.399 636.157 928.833 550.441 891.577C464.731 854.324 378.432 781.406 311.889 681.638C245.345 581.869 211.181 474.179 209.718 380.734C208.255 287.283 239.491 208.151 303.656 165.355C367.82 122.558 452.879 124.123 538.595 161.379C624.305 198.633 710.604 271.55 777.148 371.319Z" stroke="url(#paint2_linear_55_5)" stroke-opacity="0.5"/>
<path d="M334.5 458C331.241 456.696 322 442 320.5 442.5C319.5 443.5 318.9 453.9 316.5 457.5C314.1 461.1 308 463.5 305 466C308.333 468.667 314.5 474.1 316.5 478.5C317.059 479.73 317.5 489.5 317 492C318.5 493 326.4 484 330 484C333.6 484 341.167 489 344.5 491.5C343 487.5 340.2 478.7 341 475.5C341.8 472.3 355 461 353.5 459C349.5 459 337 459 334.5 458Z" fill="#D9D9D9"/>
<path d="M488.5 143.5C486.1 145.1 486.5 153 484 153C483 153 479 145.7 477 144.5C474.5 143 464.5 146.5 463.5 144.5C462.5 142.5 470.5 137 470.5 133.5C470.5 130.7 464.5 124 467.5 122C469.5 120 477.1 126.5 479.5 126.5C481.9 126.5 489 116.5 492 116.5C493 121 491.3 129.6 492.5 132C493.7 134.4 498 136.5 498.5 140C496 141 490.9 141.9 488.5 143.5Z" fill="#D9D9D9"/>
<path d="M864.5 501C862.1 501 857.5 511 856 511C854.5 511 852.8 501.8 850 499C847.2 496.2 841 496.5 836 496C834.5 495.5 846.5 486.5 846.5 484.5C846.5 482 842.5 472.5 845 471C847.5 469.5 858.5 480.5 861 481C863 481.4 872.5 475.5 874.5 476.5C875.5 477.5 867.1 488.7 867.5 491.5C867.9 494.3 874.5 498 874.5 501H864.5Z" fill="#D9D9D9"/>
<defs>
<linearGradient id="paint0_linear_55_5" x1="296.059" y1="707.625" x2="554.68" y2="528.36" gradientUnits="userSpaceOnUse">
<stop stop-color="white"/>
<stop offset="1" stop-color="white" stop-opacity="0"/>
</linearGradient>
<linearGradient id="paint1_linear_55_5" x1="413" y1="621" x2="648.5" y2="457.5" gradientUnits="userSpaceOnUse">
<stop stop-color="white"/>
<stop offset="1" stop-color="white" stop-opacity="0"/>
</linearGradient>
<linearGradient id="paint2_linear_55_5" x1="349.994" y1="675.77" x2="601.604" y2="501.138" gradientUnits="userSpaceOnUse">
<stop stop-color="white"/>
<stop offset="1" stop-color="white" stop-opacity="0"/>
</linearGradient>
</defs>
</svg>
