<svg width="531" height="266" viewBox="0 0 531 266" fill="currentColor" xmlns="http://www.w3.org/2000/svg">
<path d="M0 265.5C3.04808e-06 230.634 6.86737 196.109 20.21 163.898C33.5526 131.686 53.1092 102.417 77.7632 77.7631C102.417 53.1092 131.686 33.5526 163.898 20.21C196.11 6.86735 230.634 -4.57212e-06 265.5 0C300.366 4.57212e-06 334.891 6.86737 367.102 20.21C399.314 33.5526 428.583 53.1092 453.237 77.7632C477.891 102.417 497.447 131.686 510.79 163.898C524.133 196.11 531 230.634 531 265.5L457.473 265.5C457.473 240.29 452.508 215.326 442.86 192.035C433.213 168.744 419.072 147.581 401.246 129.754C383.419 111.928 362.256 97.7874 338.965 88.1398C315.674 78.4923 290.71 73.5267 265.5 73.5267C240.29 73.5267 215.326 78.4922 192.035 88.1398C168.744 97.7874 147.581 111.928 129.754 129.754C111.928 147.581 97.7874 168.744 88.1398 192.035C78.4923 215.326 73.5267 240.29 73.5267 265.5L0 265.5Z" fill="currentColor"/>
</svg>
