<svg width="100%" height="100%" viewBox="0 0 1370 289" fill="none" xmlns="http://www.w3.org/2000/svg">
<path d="M13.5001 288.5C8.50006 288.5 1.00006 282.5 1.00006 277L1 14.5C1 8 8.00006 2.50022 15 2.50022C15 2.50022 1350.5 1 1357 0.999756C1363.5 0.999512 1369 7.49951 1369 13.9998V213C1369 219.5 1363.5 223.5 1357 223.5L1342.81 223.5C1230.76 223.499 491.981 223.496 377 223.5C370 223.5 369.101 224.153 363.5 231C359.5 235.889 321 282.5 321 282.5C321 282.5 317.5 288.5 308 288.5L13.5001 288.5Z" fill="#272237" fill-opacity="0.32" stroke="#52465F" stroke-opacity="0.75"/>
<rect width="100%" height="100%" />
</svg>
